<?xml version="1.0" standalone="no"?><!DOCTYPE svg PUBLIC "-//W3C//DTD SVG 1.1//EN" "http://www.w3.org/Graphics/SVG/1.1/DTD/svg11.dtd"><svg t="1652106512298" class="icon" viewBox="0 0 1024 1024" version="1.1" xmlns="http://www.w3.org/2000/svg" p-id="4288" xmlns:xlink="http://www.w3.org/1999/xlink" width="200" height="200"><defs><style type="text/css"></style></defs><path d="M239.07 769.91q-16.47 0-32.71-0.89a59.23 59.23 0 0 0 37.21 30l247.29 68.65a63.08 63.08 0 0 0 33.72 0L771.86 799c25.57-7.1 43.14-29.33 43.14-54.59V446h-46.44C670.1 638.3 470 769.91 239.07 769.91z" fill="#C9F4EB" p-id="4289"></path><path d="M110 670a25 25 0 0 1-25-25V417a25 25 0 0 1 50 0v228a25 25 0 0 1-25 25z" fill="#FFA143" p-id="4290"></path><path d="M514.59 618.5a88.19 88.19 0 0 1-38.73-8.88L86.7 419.36a45.52 45.52 0 0 1-25.59-40.59 47 47 0 0 1 25.56-42.47l395.22-205.14a89.85 89.85 0 0 1 81-1.13l388.92 192.72a45.51 45.51 0 0 1 25.38 40.72 47.05 47.05 0 0 1-25.78 42.34L556 608.49a90.84 90.84 0 0 1-41.41 10.01z m-16.77-53.8a39.75 39.75 0 0 0 35.4-0.7l389.69-199.77-382.22-189.4a39.69 39.69 0 0 0-35.76 0.71L115.39 377.73z" fill="#10A38B" p-id="4291"></path><path d="M519.15 904a87.92 87.92 0 0 1-23.55-3.2l-247.29-68.65a84.57 84.57 0 0 1-44.08-29.08 80.4 80.4 0 0 1-17.37-49.6V455.09a25 25 0 0 1 50 0v298.38c0 13.9 10.21 26.44 24.83 30.5L509 852.62a38 38 0 0 0 20.35 0L776.6 784c14.62-4.06 24.83-16.6 24.83-30.5V455.09a25 25 0 0 1 50 0v298.38a80.4 80.4 0 0 1-17.37 49.6A84.57 84.57 0 0 1 790 832.15L542.7 900.8a88 88 0 0 1-23.55 3.2z" fill="#10A38B" p-id="4292"></path></svg>